<svg width="632" height="594" xmlns="http://www.w3.org/2000/svg" xmlns:xlink="http://www.w3.org/1999/xlink" xml:space="preserve" overflow="hidden"><defs><clipPath id="clip0"><rect x="446" y="1038" width="632" height="594"/></clipPath></defs><g clip-path="url(#clip0)" transform="translate(-446 -1038)"><path d="M503.53 178.935 499.271 169.919 493.089 156.836 486.128 169.405C484.617 171.943 483.424 174.157 482.533 175.889 480.948 178.98 480.636 179.911 480.47 180.48 479.699 183.072 479.578 185.947 479.986 188.066 481.079 193.78 487.054 199.543 493.769 198.738 498.687 198.154 503.409 194.122 504.642 188.368 505.594 183.928 504.094 180.188 503.53 178.935" fill="#83CAED" transform="matrix(1 0 0 1.00117 439.702 1012.33)"/><path d="M152.95 300.84 147.74 289.806 140.179 273.803 131.656 289.182C129.809 292.288 128.349 294.996 127.262 297.115 125.319 300.896 124.936 302.038 124.73 302.733 123.793 305.904 123.647 309.418 124.146 312.015 125.48 319.008 132.789 326.06 141.009 325.073 147.025 324.354 152.804 319.42 154.309 312.388 155.477 306.956 153.644 302.381 152.95 300.84" fill="#83CAED" transform="matrix(1 0 0 1.00117 439.702 1012.33)"/><path d="M542.442 544.485 537.227 533.446 529.666 517.443 521.148 532.827C519.301 535.928 517.841 538.641 516.754 540.755 514.806 544.536 514.428 545.684 514.222 546.373 513.285 549.544 513.134 553.058 513.633 555.661 514.972 562.648 522.281 569.7 530.501 568.714 536.517 567.999 542.291 563.06 543.801 556.028 544.969 550.597 543.131 546.021 542.442 544.485" fill="#83CAED" transform="matrix(1 0 0 1.00117 439.702 1012.33)"/><path d="M337.119 442.056 332.861 433.04 326.684 419.957 319.717 432.527C318.212 435.064 317.019 437.279 316.128 439.01 314.537 442.101 314.225 443.038 314.059 443.601 313.294 446.194 313.173 449.068 313.576 451.187 314.673 456.901 320.644 462.665 327.364 461.859 332.282 461.275 336.999 457.243 338.232 451.494 339.183 447.05 337.688 443.314 337.119 442.056" fill="#83CAED" transform="matrix(1 0 0 1.00117 439.702 1012.33)"/><path d="M55.0405 64.6301 50.7819 55.6144 44.6002 42.5364 37.6384 55.106C36.1282 57.638 34.9352 59.858 34.0492 61.5846 32.4585 64.6754 32.1464 65.6117 31.9803 66.1805 31.2151 68.7679 31.0893 71.6423 31.497 73.7666 32.5944 79.4801 38.5646 85.2388 45.2849 84.4384 50.1979 83.8495 54.9197 79.8173 56.153 74.0686 57.1044 69.6287 55.6094 65.8886 55.0405 64.6301" fill="#83CAED" transform="matrix(1 0 0 1.00117 439.702 1012.33)"/><path d="M49.609 559.3 45.3453 550.284 39.1687 537.201 32.2018 549.771C30.6966 552.308 29.5036 554.528 28.6126 556.255 27.0219 559.346 26.7098 560.282 26.5437 560.846 25.7785 563.438 25.6577 566.312 26.0655 568.437 27.1578 574.145 33.128 579.909 39.8483 579.109 44.7664 578.52 49.4882 574.487 50.7215 568.739 51.6729 564.299 50.1728 560.559 49.609 559.3" fill="#83CAED" transform="matrix(1 0 0 1.00117 439.702 1012.33)"/><path d="M385.868 149.35 384.076 145.57 381.483 140.078 378.563 145.354C377.929 146.416 377.426 147.347 377.053 148.072 376.389 149.371 376.258 149.763 376.187 150 375.865 151.087 375.815 152.295 375.986 153.186 376.444 155.582 378.951 158.004 381.77 157.666 383.834 157.42 385.817 155.728 386.331 153.312 386.733 151.45 386.104 149.879 385.868 149.35" fill="#83CAED" transform="matrix(1 0 0 1.00117 439.702 1012.33)"/><path d="M528.156 299.924 526.615 296.672 524.385 291.95 521.873 296.486C521.33 297.402 520.897 298.202 520.574 298.827 520.001 299.939 519.89 300.276 519.829 300.483 519.553 301.419 519.507 302.456 519.653 303.221 520.051 305.285 522.205 307.364 524.632 307.072 526.404 306.861 528.11 305.406 528.553 303.332 528.901 301.726 528.357 300.377 528.156 299.924" fill="#83CAED" transform="matrix(1 0 0 1.00117 439.702 1012.33)"/><path d="M227.356 369.19 225.981 366.276 223.988 362.052 221.738 366.115C221.249 366.93 220.867 367.645 220.575 368.204 220.066 369.205 219.966 369.508 219.91 369.689 219.664 370.524 219.623 371.451 219.754 372.14 220.107 373.983 222.035 375.845 224.204 375.583 225.795 375.397 227.32 374.093 227.718 372.236 228.025 370.801 227.542 369.593 227.356 369.19" fill="#83CAED" transform="matrix(1 0 0 1.00117 439.702 1012.33)"/><path d="M257.217 530.713 255.681 527.461 253.451 522.739 250.939 527.275C250.396 528.191 249.963 528.991 249.641 529.615 249.067 530.728 248.956 531.065 248.896 531.271 248.619 532.208 248.573 533.245 248.719 534.01 249.117 536.069 251.272 538.153 253.698 537.861 255.47 537.649 257.176 536.195 257.619 534.121 257.962 532.515 257.423 531.166 257.217 530.713" fill="#83CAED" transform="matrix(1 0 0 1.00117 439.702 1012.33)"/><path d="M406.607 325.597 405.379 322.999 403.602 319.239 401.599 322.853C401.166 323.583 400.823 324.223 400.567 324.721 400.109 325.607 400.018 325.879 399.973 326.04 399.751 326.785 399.716 327.61 399.832 328.22 400.149 329.866 401.865 331.522 403.798 331.29 405.213 331.124 406.572 329.961 406.924 328.31 407.196 327.032 406.768 325.954 406.607 325.597" fill="#83CAED" transform="matrix(1 0 0 1.00117 439.702 1012.33)"/><path d="M119.469 183.218 118.095 180.304 116.097 176.08 113.846 180.143C113.363 180.958 112.976 181.678 112.689 182.232 112.175 183.234 112.074 183.536 112.019 183.717 111.772 184.552 111.732 185.484 111.863 186.168 112.22 188.011 114.148 189.873 116.318 189.616 117.904 189.425 119.429 188.121 119.827 186.264 120.134 184.829 119.65 183.621 119.469 183.218" fill="#83CAED" transform="matrix(1 0 0 1.00117 439.702 1012.33)"/><path d="M308.431 269.761 307.208 267.169 305.431 263.403 303.428 267.023C302.995 267.753 302.647 268.387 302.396 268.885 301.938 269.776 301.847 270.043 301.797 270.209 301.58 270.954 301.545 271.78 301.661 272.389 301.973 274.03 303.694 275.691 305.627 275.459 307.042 275.288 308.396 274.13 308.754 272.474 309.025 271.201 308.597 270.123 308.431 269.761" fill="#83CAED" transform="matrix(1 0 0 1.00117 439.702 1012.33)"/><path d="M425.253 492.928 424.15 490.593 422.55 487.2 420.742 490.462C420.355 491.116 420.043 491.69 419.811 492.138 419.398 492.938 419.323 493.18 419.278 493.331 419.076 494.001 419.046 494.746 419.152 495.294 419.434 496.774 420.984 498.269 422.726 498.063 423.999 497.907 425.223 496.865 425.545 495.375 425.786 494.222 425.399 493.256 425.253 492.928" fill="#83CAED" transform="matrix(1 0 0 1.00117 439.702 1012.33)"/><path d="M523.61 428.203 522.231 425.288 520.237 421.065 517.987 425.122C517.499 425.942 517.116 426.657 516.829 427.216 516.316 428.213 516.215 428.515 516.16 428.701 515.913 429.537 515.873 430.463 516.004 431.152 516.356 432.995 518.284 434.857 520.454 434.596 522.044 434.409 523.57 433.106 523.967 431.248 524.274 429.813 523.791 428.605 523.61 428.203" fill="#83CAED" transform="matrix(1 0 0 1.00117 439.702 1012.33)"/><path d="M188.751 611.487 187.205 608.209 184.96 603.457 182.428 608.023C181.879 608.944 181.446 609.75 181.124 610.379 180.545 611.502 180.435 611.839 180.374 612.045 180.097 612.987 180.052 614.034 180.198 614.804 180.596 616.878 182.765 618.972 185.207 618.68 186.994 618.463 188.705 616.999 189.153 614.91 189.501 613.299 188.957 611.94 188.751 611.487" fill="#83CAED" transform="matrix(1 0 0 1.00117 439.702 1012.33)"/><path d="M380.159 609.584 378.563 606.211 376.253 601.318 373.65 606.02C373.087 606.971 372.639 607.797 372.306 608.446 371.712 609.604 371.592 609.951 371.531 610.163 371.244 611.134 371.199 612.206 371.35 613.002 371.763 615.141 373.993 617.296 376.51 616.994 378.347 616.772 380.114 615.267 380.577 613.117 380.929 611.456 380.371 610.057 380.159 609.584" fill="#83CAED" transform="matrix(1 0 0 1.00117 439.702 1012.33)"/><path d="M623.588 604.54 621.856 600.875 619.344 595.554 616.51 600.664C615.901 601.696 615.413 602.597 615.05 603.301 614.406 604.56 614.28 604.937 614.21 605.169 613.898 606.221 613.852 607.389 614.013 608.255 614.462 610.575 616.888 612.916 619.621 612.594 621.62 612.352 623.538 610.711 624.041 608.376 624.429 606.568 623.82 605.048 623.588 604.54" fill="#83CAED" transform="matrix(1 0 0 1.00117 439.702 1012.33)"/><path d="M635.236 446.033 634.506 444.487 633.449 442.247 632.256 444.402C632 444.835 631.793 445.212 631.642 445.509 631.37 446.038 631.315 446.199 631.29 446.299 631.159 446.742 631.139 447.236 631.204 447.598 631.391 448.575 632.417 449.561 633.565 449.426 634.411 449.325 635.216 448.635 635.428 447.649 635.594 446.888 635.337 446.249 635.236 446.033" fill="#83CAED" transform="matrix(1 0 0 1.00117 439.702 1012.33)"/><path d="M622.521 356.102 621.212 353.324 619.309 349.301 617.165 353.168C616.702 353.948 616.334 354.632 616.062 355.161 615.574 356.112 615.478 356.399 615.428 356.575 615.191 357.371 615.151 358.257 615.277 358.911 615.614 360.668 617.452 362.44 619.521 362.193 621.031 362.012 622.486 360.774 622.863 359.002 623.155 357.638 622.697 356.49 622.521 356.102" fill="#83CAED" transform="matrix(1 0 0 1.00117 439.702 1012.33)"/><path d="M145.887 486.455 143.436 481.265 139.877 473.734 135.865 480.973C134.999 482.433 134.309 483.706 133.801 484.703 132.885 486.485 132.703 487.024 132.608 487.346 132.165 488.841 132.099 490.492 132.331 491.715 132.96 495.007 136.398 498.325 140.269 497.862 143.098 497.524 145.817 495.204 146.526 491.891 147.075 489.334 146.214 487.18 145.887 486.455" fill="#83CAED" transform="matrix(1 0 0 1.00117 439.702 1012.33)"/><path d="M63.1149 436.755 61.8363 434.042 59.9737 430.1 57.8796 433.886C57.4216 434.651 57.0642 435.316 56.7974 435.839 56.3191 436.77 56.2235 437.052 56.1732 437.218 55.9416 438.004 55.9064 438.864 56.0272 439.504 56.3594 441.225 58.1565 442.962 60.1801 442.72 61.6601 442.539 63.0797 441.326 63.4522 439.594 63.7391 438.26 63.286 437.133 63.1149 436.755" fill="#83CAED" transform="matrix(1 0 0 1.00117 439.702 1012.33)"/><path d="M29.7905 341.368 28.6781 339.002 27.0571 335.579 25.2349 338.871C24.8372 339.536 24.5251 340.115 24.2935 340.568 23.8757 341.378 23.7952 341.625 23.7499 341.771 23.5485 342.45 23.5183 343.2 23.624 343.759 23.911 345.254 25.4765 346.764 27.2384 346.553 28.522 346.402 29.7603 345.345 30.0825 343.84 30.3342 342.672 29.9416 341.695 29.7905 341.368" fill="#83CAED" transform="matrix(1 0 0 1.00117 439.702 1012.33)"/><path d="M16.8887 204.124 15.0161 200.162 12.3028 194.414 9.24222 199.941C8.57775 201.053 8.05422 202.025 7.66661 202.785 6.9669 204.144 6.83099 204.557 6.75548 204.804 6.41821 205.946 6.36283 207.205 6.54405 208.141 7.02227 210.648 9.64996 213.18 12.5998 212.828 14.7644 212.571 16.8384 210.799 17.377 208.272 17.7948 206.319 17.1354 204.678 16.8887 204.124" fill="#83CAED" transform="matrix(1 0 0 1.00117 439.702 1012.33)"/><path d="M177.691 39.6721 176.528 37.2055 174.837 33.6264 172.929 37.0645C172.516 37.7592 172.189 38.3633 171.948 38.8364 171.515 39.6821 171.429 39.9389 171.384 40.0949 171.172 40.7997 171.142 41.59 171.253 42.1689 171.55 43.7294 173.186 45.31 175.023 45.0885 176.367 44.9274 177.656 43.825 177.993 42.2494 178.255 41.0363 177.847 40.0144 177.691 39.6721" fill="#83CAED" transform="matrix(1 0 0 1.00117 439.702 1012.33)"/><path d="M236.769 134.913 234.463 130.03 231.121 122.953 227.351 129.759C226.53 131.128 225.886 132.331 225.402 133.267 224.542 134.938 224.375 135.447 224.285 135.754 223.872 137.153 223.807 138.709 224.023 139.857 224.617 142.952 227.849 146.068 231.488 145.635 234.146 145.318 236.703 143.134 237.373 140.023 237.886 137.616 237.076 135.593 236.769 134.913" fill="#83CAED" transform="matrix(1 0 0 1.00117 439.702 1012.33)"/><path d="M353.067 33.9536 351.466 30.5557 349.14 25.6326 346.518 30.3644C345.949 31.3209 345.496 32.1565 345.164 32.8058 344.565 33.9687 344.449 34.321 344.383 34.5375 344.096 35.5141 344.051 36.5913 344.202 37.3917 344.615 39.5462 346.865 41.7158 349.397 41.4138 351.245 41.1923 353.022 39.6721 353.49 37.5075 353.847 35.8362 353.283 34.4268 353.067 33.9536" fill="#83CAED" transform="matrix(1 0 0 1.00117 439.702 1012.33)"/><path d="M556.285 57.93 554.352 53.8324 551.543 47.8874 548.377 53.6008C547.692 54.7536 547.148 55.7604 546.746 56.5457 546.026 57.9501 545.88 58.378 545.804 58.6297 545.457 59.8076 545.402 61.1164 545.588 62.0829 546.086 64.6754 548.799 67.293 551.85 66.9306 554.085 66.6638 556.229 64.8314 556.788 62.2189 557.221 60.2003 556.542 58.4988 556.285 57.93" fill="#83CAED" transform="matrix(1 0 0 1.00117 439.702 1012.33)"/><path d="M611.235 155.915 610.042 153.393 608.31 149.728 606.357 153.247C605.939 153.956 605.602 154.581 605.355 155.064 604.907 155.93 604.822 156.191 604.776 156.348 604.56 157.077 604.525 157.883 604.64 158.477 604.948 160.073 606.619 161.688 608.501 161.462 609.876 161.296 611.2 160.168 611.547 158.557 611.814 157.314 611.391 156.267 611.235 155.915" fill="#83CAED" transform="matrix(1 0 0 1.00117 439.702 1012.33)"/><path d="M637.064 256.899 634.572 251.629 630.963 243.982 626.89 251.332C626.009 252.812 625.315 254.111 624.791 255.122 623.865 256.925 623.684 257.473 623.583 257.806 623.135 259.321 623.064 260.997 623.301 262.24 623.945 265.578 627.434 268.946 631.36 268.477 634.235 268.13 636.993 265.774 637.713 262.417 638.272 259.819 637.396 257.634 637.064 256.899" fill="#83CAED" transform="matrix(1 0 0 1.00117 439.702 1012.33)"/></g></svg>