<svg width="462" height="562" xmlns="http://www.w3.org/2000/svg" xmlns:xlink="http://www.w3.org/1999/xlink" xml:space="preserve" overflow="hidden"><defs><clipPath id="clip0"><rect x="670" y="1054" width="462" height="562"/></clipPath><clipPath id="clip1"><rect x="996" y="1173" width="136" height="159"/></clipPath></defs><g clip-path="url(#clip0)" transform="translate(-670 -1054)"><path d="M356.562 0C356.562 0 353.246 4.12187 352.777 5.06364 352.304 6.00978 350.749 6.7194 350.749 7.28446 350.749 7.84951 349.663 9.12418 349.667 9.69362 349.667 10.2587 349.715 13.3249 350 13.6578 350.285 13.9863 351.323 15.8261 351.748 16.3911 352.173 16.9562 354.301 18.9843 354.726 19.2208 355.151 19.4573 355.848 21.481 356.583 22.2388 360.587 26.3257 364.477 30.7147 365.567 36.5143 366.785 43.019 364.599 49.953 362.348 55.9979 360.854 60.0146 359.461 63.9394 355.817 66.5019 354.512 67.4173 354.052 67.7064 353.636 69.3184 353.092 71.4428 352.387 72.1744 350.928 73.6987 350.092 74.5748 350.105 74.9296 349.741 76.0904 348.541 79.9056 348.34 83.9574 346.929 87.7201 346.434 89.0517 346.246 90.3745 345.852 91.7149 344.77 95.355 342.194 98.316 341.471 102.21 341.055 104.435 341.682 106.849 340.792 108.973 339.934 111.028 337.831 112.197 336.942 114.256 336.364 115.601 335.632 116.788 334.936 118.062 332.671 122.193 328.725 125.071 326.32 129.088 326.32 129.088 326.32 129.092 326.32 129.092 325.628 130.227 323.849 130.809 323.026 131.944 321.686 133.788 319.986 135.571 318.54 137.463 316.797 139.741 316.723 142.202 313.967 143.63 311.9 144.704 309.316 144.844 307.34 146.07 306.039 146.876 300.327 148.874 299.46 149.246 298.588 149.618 296.354 149.868 294.865 150.306 292.057 151.125 289.035 152.036 286.157 152.509 284.659 152.755 283.121 152.798 281.68 153.293 279.372 154.095 276.494 154.156 274.479 155.663 272.788 156.929 270.778 157.717 269.131 159.005 267.606 160.197 266.735 161.927 265.767 163.556 264.422 165.803 262.503 167.49 260.361 168.949 258.254 170.385 255.92 171.835 254.768 174.209 254.443 174.879 254.404 175.729 253.953 176.325 253.305 177.192 252.196 177.499 251.539 178.41 250.808 179.431 250.462 180.683 249.8 181.743 248.872 183.246 247.812 184.665 247.352 186.4 246.309 190.316 246.896 192.979 244.211 196.295 240.277 201.148 235.428 202.765 230.632 206.313 228.42 207.951 227.22 210.386 225.66 212.572 223.26 215.94 219.397 218.201 217.907 222.178 216.681 225.468 217.447 228.941 217.154 232.34 216.856 235.875 215.091 238.087 213.72 241.224 212.344 244.369 214.434 247.842 212.795 250.935 211.897 252.634 210.54 254.29 210.553 256.309 210.57 258.762 211.696 261.119 211.442 263.576 211.232 265.578 210.22 267.094 211.175 269.113 212.471 271.846 211.954 274.645 211.639 277.523 211.297 280.629 211.902 283.691 211.705 286.792 211.56 289.079 210.137 290.901 209.243 292.929 208.63 294.322 208.463 295.85 208.008 297.296 207.561 298.711 206.58 299.705 206.037 301.046 205.231 303.025 206.159 305.132 206.015 307.169 205.875 309.197 204.687 310.971 203.57 312.601 202.432 314.265 201.713 316.723 200.347 318.133 199.26 319.263 197.6 319.325 196.159 319.609 194.372 319.955 193.102 320.805 191.901 322.172 191.275 322.877 190.355 323.17 189.637 323.757 188.848 324.401 188.358 325.317 187.718 326.097 186.019 328.164 185.107 330.713 184.03 333.127 183.815 333.613 183.855 334.323 183.649 334.862 183.325 335.711 182.773 337.074 181.941 337.538 181.021 338.055 179.641 337.849 178.638 337.976 175.278 338.405 173.062 341.559 172.037 344.52 171.664 345.598 171.274 346.675 170.911 347.753 170.241 349.755 169.908 351.778 168.366 353.364 167.446 354.306 165.974 354.459 164.976 355.383 163.981 356.308 163.215 357.424 161.87 357.871 160.446 358.349 158.909 358.607 157.599 359.378 155.834 360.412 153.241 361.608 152.041 363.334 150.63 365.357 150.67 368.099 149.969 370.395 149.421 372.199 150.341 374.052 150.231 375.883 150.153 377.276 149.723 378.608 149.228 379.904 148.874 380.833 148.151 381.919 148.081 382.922 148.015 383.86 147.625 384.744 147.757 385.726 147.888 386.702 148.146 386.851 147.998 387.833 147.844 388.809 147.608 389.94 147.349 390.873 147.091 391.81 146.937 391.591 147.349 392.94 147.726 394.167 148.028 395.411 147.879 396.703 147.792 397.447 147.397 398.091 147.367 398.849 147.336 399.646 147.481 400.509 147.577 401.298 147.63 401.744 147.958 402.165 147.941 402.621 147.91 403.672 147.288 404.828 146.679 405.656 146.381 406.055 146.079 406.414 145.632 406.642 144.997 406.975 144.524 406.804 144.143 407.513 143.696 408.346 143.749 409.826 143.871 410.759 144.003 411.736 144.252 411.736 144.134 413.116 144.016 414.496 143.871 414.377 143.381 415.201 142.89 416.02 142.373 415.858 142.185 416.589 141.996 417.316 141.576 417.667 141.247 418.232 140.919 418.797 140.52 419.621 139.955 420.348 139.395 421.079 138.054 421.127 137.748 421.833 137.445 422.538 136.858 422.63 136.858 423.615 136.858 424.605 136.363 425.061 136.653 425.801 136.942 426.541 136.797 426.392 136.797 427.023 136.797 427.65 136.622 427.68 136.85 428.131 137.073 428.583 137.572 429.047 137.572 429.739 137.572 430.431 137.717 430.431 137.783 431.154 137.848 431.877 137.787 432.455 137.914 432.967 138.045 433.484 138.045 433.646 138.045 434.369 138.045 435.092 137.918 435.447 138.094 436.441 138.273 437.44 138.352 437.44 138.243 437.904 138.129 438.373 137.406 438.951 137.406 439.866 137.41 440.786 137.778 441.829 138.037 442.635 138.295 443.436 138.12 443.081 138.637 444.045 139.149 445.013 139.132 445.333 139.263 445.898 139.395 446.459 140.052 447.646 140.183 448.338 140.314 449.03 140.038 449.21 140.008 449.595 139.973 449.98 139.574 450.83 139.412 451.33 139.254 451.829 139.11 451.925 139.092 452.359 139.079 452.793 138.742 454.304 138.47 454.9 138.194 455.495 137.875 455.771 137.537 456.271 137.2 456.77 136.977 456.704 136.736 457.155 136.495 457.607 136.14 457.331 135.917 458.04 135.693 458.745 136.013 458.522 135.838 459.275 135.663 460.033 135.146 460.804 134.892 461.369 134.633 461.93 134.182 461.947 133.7 462.688 133.223 463.428 132.518 463.24 132.097 463.866 131.676 464.497 131.825 464.107 131.287 465.136 130.743 466.17 130.573 465.307 130.389 466.442 130.205 467.576 130.205 467.664 130.389 468.067 130.577 468.474 131.493 469.793 131.037 470.861 130.581 471.93 130.345 472.101 129.907 472.64 129.464 473.183 129.228 473.573 129.026 474.133 128.825 474.69 128.264 475.469 127.927 475.776 127.59 476.083 126.473 476.118 125.982 476.792 125.491 477.471 125.185 477.778 125.084 478.352 124.983 478.93 124.716 479.456 124.817 480.064 124.918 480.673 124.791 480.52 124.795 481.028 124.799 481.536 124.532 482.452 124.449 482.907 124.361 483.367 124.361 483.722 124.296 484.366 124.23 485.01 124.077 485.294 123.923 486.008 123.774 486.718 123.656 487.196 123.621 487.699 123.59 488.207 123.271 489.749 123.034 490.257 122.798 490.766 122.373 491.291 122.084 491.716 121.799 492.141 120.599 492.921 120.41 493.328 120.226 493.731 120.007 494.108 119.648 494.699 119.298 495.29 118.79 495.698 118.483 496.105 118.181 496.512 116.472 498.054 116.201 498.291 115.929 498.532 114.576 498.567 114.269 498.668 113.757 498.838 113.275 498.987 112.881 499.382 112.521 499.745 111.877 500.201 111.615 500.612 111.312 501.081 111.063 501.677 111.05 502.233 111.023 503.157 111.356 504.016 111.466 504.923 111.588 505.948 111.308 506.973 111.431 508.002 111.553 509.071 111.72 510.175 111.291 511.195 110.888 512.155 110.029 512.93 109.933 514.012 109.863 514.827 109.801 515.724 109.46 516.478 108.864 517.779 107.808 518.782 107.112 520.017 106.744 520.665 106.485 521.362 106.437 522.115 106.38 522.991 106.674 523.894 106.341 524.748 106.03 525.55 105.421 526.307 104.764 526.859 104.159 527.367 103.2 527.455 102.898 528.274 102.508 529.317 102.911 530.14 103.064 531.152 103.218 532.177 102.201 534.919 101.833 535.861 101.649 536.329 101.461 536.702 101.47 537.219 101.474 537.736 101.619 538.222 101.518 538.739 101.409 539.321 101.076 539.851 100.909 540.421 100.66 541.297 100.616 542.269 100.09 543.04 99.6433 543.693 99.9061 542.83 99.7396 543.658 99.6039 544.332 99.1571 544.705 99.3104 545.195 99.4637 545.686 99.7922 546.334 99.7922 546.807 99.7922 547.28 100.108 547.455 100.309 547.911 100.515 548.367 100.668 549.046 100.668 549.554 100.668 550.062 100.787 551.025 100.703 551.551 100.62 552.077 100.502 554.109 100.454 554.446 100.401 554.784 100.296 555.476 99.7878 556.172 99.2797 556.864 99.0081 556.308 98.6183 556.969 98.2284 557.627 97.2823 557.561 97.129 557.986 96.98 558.411 96.6559 559.221 96.6603 559.9 96.6603 560.574 96.2704 560.68 96.2704 560.68 96.2704 560.68 96.1872 558.84 96.4281 558.634 96.6647 558.419 96.6647 557.609 96.9669 557.46 97.2648 557.307 97.9875 556.799 98.316 556.378 98.6446 555.958 99.6389 555.625 99.6345 554.604 99.6345 553.583 100.173 550.211 99.6301 548.892 99.087 547.578 98.0094 546.457 98.0532 545.668 98.097 544.875 98.0313 543.426 98.6884 542.769 99.836 541.617 98.903 539.816 99.5907 538.458 99.8754 537.898 100.204 537.503 100.2 536.842 100.195 536.159 99.9411 535.629 100.182 534.95 100.751 533.32 101.952 532.221 101.522 530.289 101.378 529.645 100.857 528.975 100.962 528.296 101.071 527.595 102.267 526.128 103.073 526.128 103.507 526.128 103.984 524.262 104.221 523.981 104.457 523.705 104.777 523.149 104.773 522.238 104.773 521.471 104.54 520.626 104.9 519.912 105.18 519.36 105.745 519.036 106.021 518.475 106.314 517.875 106.323 517.17 106.744 516.622 107.208 516.009 107.922 515.589 108.045 514.778 108.154 514.078 107.681 513.28 108.115 512.632 108.321 512.321 108.811 512.176 109.061 511.879 110.047 510.683 109.705 508.747 109.473 507.358 109.337 506.57 109.81 505.816 109.679 505.028 109.552 504.279 109.078 503.692 109.122 502.89 109.188 501.69 109.455 500.424 110.322 499.552 111.19 498.685 112.92 496.88 113.787 497.148 114.655 497.415 116.591 495.676 116.924 495.273 117.257 494.874 118.032 494.007 118.076 493.49 118.119 492.973 118.851 492.408 119.285 491.979 119.718 491.545 120.883 490.507 121.098 489.903 121.313 489.294 121.703 488.387 121.654 487.563 121.611 486.744 121.698 485.925 121.913 485.277 122.127 484.629 122.605 484.02 122.605 483.157 122.6 482.294 122.859 481.47 122.859 480.778 122.859 480.086 122.557 479.613 122.859 478.965 123.157 478.317 123.849 477.362 123.936 476.674 124.02 475.982 124.453 475.719 124.926 475.461 125.404 475.202 126.613 474.896 126.827 473.989 127.042 473.082 128.339 471.352 128.641 471.308 128.943 471.264 129.202 470.704 129.202 470.314 129.202 469.924 128.553 469.451 128.422 468.715 128.29 467.979 127.944 467.116 128.378 466.297 128.807 465.474 129.197 464.694 129.197 464.221 129.193 463.743 130.319 463.31 130.792 462.491 131.265 461.667 132.132 462.228 132.78 461.146 133.424 460.064 133.77 459.289 133.77 458.25 133.77 457.212 135.106 456.301 135.409 455.657 135.711 455.005 136.793 454.834 136.788 453.796 136.788 452.758 137.568 451.588 137.52 450.637 137.476 449.687 138.256 449.429 138.124 448.566 137.993 447.698 137.603 447.225 137.042 446.06 136.477 444.891 135.654 441.78 135.566 440.83 135.479 439.879 135.952 439.017 136.21 437.803 136.469 436.594 136.122 435.99 136.122 435.039 136.122 434.089 136.464 430.974 135.899 430.326 135.338 429.682 134.603 429.941 134.603 428.429 134.598 426.914 133.906 426.309 134.34 425.188 134.769 424.062 134.208 422.551 134.725 421.903 135.242 421.25 135.027 421.167 136.061 420.172 137.099 419.174 138.05 419.305 138.435 418.394 138.825 417.487 139.732 415.455 140.38 415.328 141.028 415.196 141.458 414.158 141.458 413.247 141.458 411.569 141.068 409.879 141.339 408.197 141.44 407.575 141.642 406.869 142.036 406.366 142.491 405.787 143.179 405.766 143.801 405.49 144.48 405.187 144.485 404.373 144.642 403.751 144.857 402.905 145.199 402.047 144.927 401.171 144.546 399.962 144.318 399.397 144.69 398.166 145.076 396.882 145.312 395.581 144.962 394.263 144.52 392.594 144.467 391.184 145.111 389.519 145.365 388.871 144.8 387.013 144.541 386.321 144.279 385.629 145.356 382.817 145.444 381.998 145.527 381.179 146.565 380.482 146.565 379.62 146.565 378.757 147.77 376.159 147.595 375.384 147.424 374.604 146.859 373.61 146.859 372.186 146.859 370.758 147.073 370.412 147.332 369.291 147.59 368.165 148.663 364.056 148.839 363.193 149.009 362.33 150.091 362.545 150.477 361.205 150.867 359.864 154.45 358.217 155.186 357.438 155.917 356.658 161.966 355.786 162.356 354.494 162.742 353.193 163.565 353.022 164.862 352.672 166.158 352.326 166.807 352.151 167.236 350.683 167.556 349.592 167.284 348.594 167.827 347.538 168.221 346.772 168.813 346.128 169.185 345.352 169.527 344.638 169.645 343.85 169.903 343.105 170.486 341.423 171.445 339.938 172.518 338.532 173.066 337.814 173.622 336.881 174.406 336.399 175.173 335.926 176.11 335.908 176.956 335.663 177.784 335.418 178.572 335.046 179.404 334.809 180.32 334.551 180.438 334.485 181.069 333.569 181.726 332.614 182.037 331.743 182.094 330.665 182.195 328.703 182.865 327.516 184.083 326.031 184.726 325.247 185.467 324.528 185.922 323.617 186.391 322.68 186.422 321.567 187.079 320.717 187.858 319.706 189.059 319.162 190.088 318.453 191.008 317.813 191.928 316.701 193.031 316.416 193.938 316.175 194.801 316.622 195.717 316.372 197.605 315.851 198.424 313.626 199.357 312.106 200.741 309.854 202.515 307.752 202.966 305.071 203.233 303.481 202.467 301.948 202.611 300.367 202.765 298.72 203.903 297.265 204.249 295.631 204.674 293.617 204.854 291.51 206.242 289.876 209.322 286.236 207.53 280.392 208.126 276.073 208.468 273.585 208.599 271.487 207.263 269.249 206.124 267.343 206.834 265.377 207.228 263.357 207.933 259.757 204.705 255.972 206.203 252.621 206.786 251.307 206.523 250.133 207.084 248.837 207.657 247.505 207.802 246.673 207.574 245.372 207.381 244.268 207.228 243.414 207.697 242.402 208.866 239.87 209.593 237.159 210.995 234.728 214.723 228.258 209.247 220.75 217.04 215.551 219.033 214.215 219.651 211.735 221.394 208.858 224.149 204.302 226.217 203.045 230.917 200.557 233.287 199.304 234.631 197.977 236.164 195.839 236.935 194.766 238.333 194.332 239.038 193.211 239.896 191.853 240.698 191.095 240.79 189.457 240.886 187.696 241.508 186.47 242.371 184.941 243.169 183.522 243.186 182.059 243.76 180.578 244.627 178.327 247.028 176.982 248.267 174.945 249.318 173.228 250.234 171.577 251.697 170.162 253.09 168.817 254.422 167.661 255.429 165.979 256.489 164.2 257.637 162.724 259.384 161.572 261.772 159.995 263.423 157.853 265.486 155.939 267.746 153.841 270.484 152.378 273.025 150.665 275.11 149.268 277.436 149.697 279.67 148.764 282.215 147.704 285.101 148.352 287.672 147.432 290.45 146.438 293.923 144.55 297.073 144.16 299.289 143.884 301.409 143.6 303.433 142.583 306.56 141.011 309.719 139.307 312.373 137.003 314.511 135.15 315.755 132.522 316.959 130.016 318.002 127.861 318.729 124.808 320.972 123.56 321.778 123.113 322.864 123.144 323.538 122.478 324.301 121.724 324.217 120.612 324.765 119.736 325.418 118.689 326.39 118.641 327.165 117.817 328.243 116.683 328.628 115.023 329.732 113.827 331.064 112.386 332.032 110.888 333.337 109.42 336.132 106.275 334.77 103.209 336.119 99.709 337.104 97.1465 338.926 94.9651 339.316 92.1792 339.518 90.7381 339.986 90.4008 340.311 89.1612 340.933 86.8046 342.934 84.8466 342.987 82.4374 343.04 80.0458 343.688 73.7775 344.722 72.6124 345.755 71.4428 347.31 71.053 347.823 67.4261 348.34 63.8036 351.314 62.8925 352.611 61.9858 353.903 61.079 356.102 59.5196 356.229 55.7657 356.369 51.5168 359.575 47.96 361.17 44.1491 362.563 40.8201 361.183 37.0355 360.381 33.7459 359.654 30.7454 359.015 28.7874 356.715 26.6323 354.639 24.6918 351.143 23.7895 351.012 21.3321 350.88 18.8704 349.194 17.7052 347.897 16.5444 346.605 15.3793 346.338 11.7568 346.465 8.77814 346.592 5.79953 346.723 7.87142 348.664 4.7614 350.6 1.65138 352.024 0.00438031 352.024 0.00438031" fill="#FFFFFF" transform="matrix(1 0 0 1.00235 670.28 1054)"/><g clip-path="url(#clip1)"><path d="M332.685 119.609C332.685 119.609 334.161 122.316 335.19 123.065 336.219 123.814 337.402 125.141 337.485 125.973 337.564 126.806 338.278 128.72 338.909 129.802 339.544 130.879 341.047 132.96 341.362 134.624 341.682 136.285 341.34 136.324 342.19 137.213 343.04 138.107 343.04 139.833 344.174 141.142 345.304 142.452 345.361 144.594 346.439 145.067 347.512 145.545 348.099 148.168 348.787 148.755 349.479 149.347 350.079 149.798 350.508 149.977 350.942 150.157 352.405 150.337 353.049 151.243 353.692 152.15 354.253 153.009 354.985 153.372 355.716 153.731 355.848 154.366 356.15 155.045 356.448 155.724 357.096 155.497 357.871 156.767 358.647 158.033 359.076 157.761 359.895 158.756 360.71 159.75 362.304 160.337 362.563 161.515 362.821 162.693 362.65 162.514 363.079 163.193 363.513 163.872 364.757 163.959 365.191 166.496 365.624 169.032 365.795 168.668 366.054 169.667 366.312 170.661 366.141 171.296 367.048 173.425 367.955 175.554 369.155 175.19 369.589 176.364 370.018 177.543 370.193 178.27 370.193 179.444 370.193 180.622 369.851 180.806 369.851 181.844 369.851 182.891 369.466 182.843 369.466 183.793 369.466 184.748 368.739 185.97 368.783 186.921 368.826 187.871 368.612 188.371 369.129 189.321 369.646 190.272 368.314 190.048 369.343 191.45 370.381 192.852 370.381 192.58 371.498 193.443 372.615 194.302 373.413 194.455 373.833 195.511 374.258 196.562 374.665 196.264 375.559 196.733 376.457 197.206 377.841 197.031 378.288 197.845 378.739 198.66 379.186 198.275 379.755 198.66 380.329 199.046 381.998 199.3 382.528 200.158 383.058 201.017 383.382 201.1 384.197 201.871 385.016 202.646 385.748 202.3 386.238 203.632 386.729 204.959 387.259 205.13 387.789 205.813 388.319 206.501 389.05 206.072 389.703 207.53 390.356 208.989 390.64 208.428 390.969 209.847 391.293 211.262 391.297 211.346 391.297 212.248 391.297 213.146 391.258 214.863 390.973 215.809 390.689 216.755 390.364 216.926 390.08 217.653 389.795 218.385 388.472 218.902 389.077 220.071 389.681 221.241 389.497 221.447 390.592 221.67 391.687 221.893 392.204 221.828 392.962 222.371 393.724 222.914 394.6 222.831 394.924 223.4 395.253 223.97 396.282 224.14 397.044 224.311 397.802 224.482 398.236 223.908 398.836 224.995 399.432 226.081 400.312 226.309 401.293 226.374 402.279 226.444 402.997 226.786 403.72 227.272 404.443 227.754 404.64 228.376 405.621 228.582 406.607 228.788 406.839 228.468 407.811 229.524 408.779 230.584 409.949 230.194 410.921 230.895 411.889 231.6 413.23 232.441 413.764 233.216 414.303 233.992 415.372 233.357 415.871 233.216 416.375 233.072 417.312 234.022 417.579 234.903 417.846 235.783 418.114 236.103 418.749 236.348 419.384 236.594 419.756 237.614 420.759 237.614 421.762 237.61 423.738 238.841 424.005 239.971 424.272 241.097 424.776 240.921 424.776 241.692 424.776 242.468 425.113 243.458 426.213 243.348 427.317 243.243 427.553 243.874 428.123 244.369 428.692 244.859 432.74 247.391 433.309 247.356 433.878 247.321 436.217 246.966 437.286 247.987 438.359 249.007 439.196 249.288 439.796 249.358 440.396 249.428 441.938 249.954 442.81 251.079 443.677 252.205 444.014 252.135 444.282 252.91 444.549 253.686 444.987 255.762 445.788 256.222 446.59 256.677 447.663 257.308 448.233 257.308 448.798 257.308 453.467 258.022 454.137 258.688 454.808 259.349 454.843 258.999 455.535 259.761 456.222 260.523 456.967 260.992 457.19 261.54 457.414 262.087 457.506 263.458 457.506 264.321 457.51 265.184 457.62 265.71 457.602 266.025 457.585 266.336 457.361 267.532 457.418 268.373 457.475 269.214 456.993 269.49 456.993 270.037 456.993 270.585 456.993 270.646 456.993 271.054 456.993 271.465 457.125 271.623 457.147 272.052 457.164 272.486 457.256 272.6 457.423 272.955 457.593 273.305 457.685 273.502 457.983 273.695 458.281 273.892 458.54 273.892 458.912 274.225 459.284 274.558 459.376 274.654 459.692 274.908 460.011 275.162 459.972 275.083 460.305 275.359 460.642 275.631 460.603 275.32 461.032 275.732 461.461 276.139 461.426 276.384 461.426 276.384 459.197 274.588 457.624 274.864 456.441 272.381 455.259 269.897 456.437 270.309 456.433 265.749 456.428 261.193 455.513 261.881 454.33 260.366 453.147 258.85 448.43 258.854 446.721 258.578 445.018 258.302 444.229 256.095 443.309 254.023 442.389 251.951 441.732 251.951 440.817 251.539 439.897 251.128 438.846 251.128 437.142 250.024 435.438 248.92 434.124 248.784 432.683 248.784 431.241 248.788 427.549 246.13 426.489 245.083 425.429 244.04 424.899 245.083 423.904 244.18 422.91 243.274 423.839 242.993 423.309 242.091 422.779 241.184 422.446 241.114 421.587 240.418 420.724 239.721 420.194 240.418 419.27 239.651 418.341 238.885 417.216 237.632 416.55 236.449 415.888 235.262 415.56 236.519 414.763 236.449 413.97 236.383 412.91 235.126 412.248 234.78 411.583 234.434 410.356 232.288 408.227 231.88 406.098 231.477 401.718 229.217 400.728 228.915 399.738 228.608 399.528 228.784 399.077 228.569 398.621 228.35 397.793 226.83 397.093 226.484 396.392 226.133 395.936 226.177 395.152 226.138 394.368 226.094 392.673 225.052 392.261 224.574 391.845 224.097 391.021 224.447 389.721 223.72 388.42 222.997 385.883 221.92 385.883 221.065 385.883 220.211 386.304 220.527 386.422 220.308 386.545 220.084 386.711 219.559 386.593 218.7 386.475 217.846 387 217.294 387.346 216.865 387.692 216.435 388.621 215.152 388.735 213.926 388.853 212.703 387.745 211.113 387.631 210.255 387.513 209.401 386.466 209.217 386.002 209.155 385.537 209.094 384.547 207.811 384.026 206.773 383.5 205.73 383.676 205.791 383.093 205.546 382.511 205.305 382.221 204.324 381.521 203.47 380.824 202.611 378.844 202.55 377.079 201.516 375.309 200.487 374.722 200.281 373.386 200.075 372.046 199.869 371.319 197.596 370.136 196.562 368.962 195.533 368.831 196.838 368.305 196.566 367.784 196.29 367.127 192.011 366.08 190.977 365.029 189.948 365.813 188.638 365.029 188.292 364.245 187.95 364.31 187.052 364.306 185.883 364.306 184.713 365.397 182.365 365.497 180.718 365.594 179.08 366.246 176.802 365.09 176.115 363.934 175.427 363.833 175.532 363.027 173.732 362.221 171.932 362.168 171.988 362.015 170.398 361.862 168.808 362.116 168.861 362.015 167.858 361.91 166.85 360.705 166.745 360.403 166.268 360.101 165.795 359.295 164.735 358.743 164.63 358.191 164.524 357.131 162.181 357.131 162.181 356.798 160.311 356.132 158.677 355.024 158.094 353.911 157.512 352.137 156.579 351.139 154.48 350.14 152.378 348.808 152.965 347.924 152.733 347.034 152.5 344.573 150.157 343.18 148.694 341.787 147.231 340.775 146.298 340.14 144.568 339.505 142.838 337.862 141.506 337.862 141.107 337.858 140.709 336.719 139.907 336.719 138.575 336.719 137.244 334.314 135.514 333.679 134.051 333.044 132.583 331.655 132.986 331.651 130.586 331.646 128.19 327.249 124.624 327.249 124.624" fill="#FFFFFF" transform="matrix(1 0 0 1.00235 670.28 1054)"/></g><path d="M412.1 232.862C412.1 232.862 411.937 234.776 411.526 235.49 411.118 236.204 411.061 238.219 410.895 238.617 410.733 239.02 409.993 239.866 409.787 239.958 409.585 240.045 409.344 240.729 408.893 241.175 408.442 241.622 407.5 241.754 406.966 242.244 406.431 242.739 405.814 242.516 405.201 242.963 404.587 243.409 403.97 243.541 403.641 244.299 403.313 245.056 403.155 244.907 402.695 245.376 402.235 245.845 401.889 246.283 401.517 246.69 401.144 247.098 400.049 248.004 399.822 248.442 399.589 248.88 398.871 249.445 398.726 250.103 398.582 250.76 398.065 251.25 397.925 251.828 397.785 252.411 397.557 252.902 397.303 253.423 397.049 253.944 396.514 254.895 396.265 255.201 396.011 255.508 395.529 255.906 395.362 256.397 395.192 256.888 393.637 258.027 393.654 258.929 393.667 259.831 393.654 259.875 393.654 259.875 393.654 259.875 393.79 260.151 393.654 260.339 393.518 260.532 393.479 260.808 393.4 261.097 393.321 261.391 393.212 261.855 393.146 262.074 393.08 262.293 392.852 262.775 392.703 263.064 392.555 263.357 392.156 263.822 392.02 264.058 391.889 264.29 391.727 264.785 391.538 265.079 391.35 265.368 391.162 265.907 390.894 266.257 390.627 266.608 390.588 266.463 390.386 266.87 390.185 267.278 389.878 267.935 389.756 268.136 389.637 268.342 389.261 268.574 389.02 268.85 388.779 269.131 388.148 269.481 388.082 269.608 388.017 269.739 387.119 270.265 386.834 270.427 386.554 270.589 386.247 270.922 386.006 271.01 385.765 271.097 385.069 271.119 385.069 271.119 386.054 270.506 388.135 268.99 388.748 268.513 389.361 268.036 390.067 266.126 390.417 265.933 390.767 265.74 391.381 263.927 391.731 263.357 392.082 262.784 392.695 261.163 392.695 260.304 392.695 259.441 392.432 258.872 393.308 257.536 394.184 256.2 395.323 254.671 395.853 253.62 396.379 252.569 396.111 251.806 396.554 251.141 396.992 250.47 396.725 249.897 397.255 249.419 397.78 248.942 397.43 248.753 397.78 248.464 398.131 248.18 397.956 247.798 398.569 247.225 399.182 246.651 399.62 245.696 399.887 245.508 400.15 245.315 400.763 245.03 401.556 243.598 402.345 242.165 401.815 242.739 402.52 242.45 403.225 242.161 403.308 241.302 404.276 241.206 405.244 241.11 407.031 240.045 407.868 239.042 408.709 238.044 408.468 237.654 408.933 236.567 409.397 235.481 408.906 235.696 409.108 234.828 409.305 233.957 408.928 231.604 408.928 231.604" fill="#FFFFFF" transform="matrix(1 0 0 1.00235 670.28 1054)"/><path d="M353.977 463.13C353.96 463.069 353.942 463.007 353.925 462.942 353.697 462.07 352.812 461.601 352.33 460.896 351.682 459.941 352.44 459.048 352.422 458.031 352.405 456.757 352.19 455.298 351.437 454.242 350.841 453.41 349.658 453.318 349.071 452.482 348.629 451.851 348.817 451.089 348.87 450.383 348.918 449.652 348.87 448.907 348.76 448.185 348.594 447.068 348.108 446.205 347.722 445.175 347.323 444.124 346.189 444.431 345.698 443.594 344.989 442.394 344.564 440.462 344.871 439.095 345.221 437.51 346.009 436.06 346.412 434.487 346.798 432.998 346.991 431.215 346.745 429.686 346.57 428.596 345.698 427.939 345.182 427.023 344.63 426.038 344.551 424.956 344.603 423.843 344.708 421.671 343.429 420.781 342.457 419.042 341.445 417.233 341.949 415.534 342.461 413.777 343.591 409.923 343.535 404.697 340.946 401.525 339.947 400.303 338.379 399.743 337.271 398.639 336.088 397.461 334.835 397.456 333.455 396.646 332.089 395.844 330.499 395.647 329.049 395.06 328.151 394.697 327.454 393.952 326.543 393.619 325.549 393.251 324.476 393.549 323.473 393.216 321.059 392.414 319.141 391.201 316.872 390.115 315.251 389.335 314.384 387.771 312.548 387.311 312.123 387.206 311.76 387.114 311.493 386.891 310.875 386.387 310.126 386.107 309.372 386.107 309.21 386.107 309.127 386.045 308.869 385.791 308.799 385.726 308.729 385.66 308.654 385.594 307.791 384.832 306.337 383.86 305.251 383.505 304.467 383.246 303.823 382.997 303.091 382.572 302.403 382.173 302.018 381.652 301.462 381.122 301.177 380.855 300.735 380.684 300.485 380.408 299.999 379.869 299.425 379.041 299.044 378.419 298.93 378.235 298.842 378.078 298.763 377.937 298.365 377.223 298.124 376.864 296.95 376.602 296.911 376.566 296.832 376.453 296.779 376.378 296.705 376.269 296.617 376.142 296.508 376.015L296.49 375.997C296.341 375.826 296.096 375.546 296.026 375.432 295.995 375.314 295.929 375.099 295.829 374.779 295.772 374.591 295.715 374.403 295.675 374.271 295.522 373.746 295.233 373.277 294.953 372.821 294.764 372.51 294.589 372.221 294.471 371.941 294.041 370.942 293.765 369.869 293.551 368.953 293.257 367.692 291.667 367.026 291.444 365.69 291.343 365.094 291.562 364.516 291.282 363.89 290.953 363.154 290.441 362.598 290.169 361.796 289.486 359.764 289.433 357.481 288.789 355.396 288.601 354.792 288.211 354.214 288.097 353.592 287.821 352.094 288.163 351.406 286.985 350.206 286.893 350.114 286.801 350.022 286.713 349.925 286.218 349.387 285.912 348.76 285.601 347.985 285.329 347.306 285.241 346.618 284.904 345.948 284.519 345.182 284.015 344.498 283.827 343.644 283.577 342.483 282.767 341.734 282.109 340.801 281.325 339.697 280.966 338.41 280.616 337.113 280.401 336.311 279.84 335.545 279.713 334.748 279.617 334.126 279.823 334.152 279.937 333.574 280.322 331.646 278.846 329.474 278.325 327.678 278.049 326.736 278.053 325.549 277.58 324.682 277.58 324.682 277.567 324.66 277.567 324.66 276.38 322.474 277.755 319.675 276.38 317.59 276.284 317.445 276.192 317.305 276.113 317.152 275.443 315.855 273.787 315.26 273.415 313.805 273.139 312.71 272.946 311.624 272.39 310.625 271.842 309.644 271.027 308.851 270.651 307.765 270.186 306.42 268.986 305.676 268.062 304.672 266.862 303.376 267.041 302.106 266.397 300.572 265.955 299.521 265.092 298.825 264.457 297.914 263.953 297.2 263.848 296.578 263.458 295.815 262.709 294.352 261.045 293.52 260.755 291.79 260.541 290.511 259.406 288.509 258.6 287.488 258.504 287.37 258.408 287.248 258.289 286.888 257.996 285.982 256.901 285.596 256.309 285.39 256.231 285.36 256.13 285.325 256.104 285.311 255.863 285.193 255.276 284.952 254.676 284.711L254.566 284.663C254.461 284.624 254.386 284.562 254.259 284.449 254.216 284.409 254.172 284.37 254.128 284.33 254.01 284.234 253.637 283.831 253.379 283.533L253.366 283.52C253.239 283.371 253.239 283.371 253.191 283.244 253.068 282.911 252.845 282.609 252.52 282.184 252.192 281.759 251.798 281.685 251.561 281.645 251.439 281.623 251.377 281.61 251.316 281.575 250.93 281.347 250.716 281.211 250.514 281.076 250.409 281.006 250.343 280.936 250.133 280.703 250.133 280.703 249.989 280.541 249.984 280.541 249.156 279.63 248.53 278.658 247.47 277.961 247.045 277.681 246.419 277.545 246.064 277.155 245.661 276.717 245.538 275.964 245.166 275.46 244.36 274.369 244.062 274.365 243.633 272.968 243.155 271.404 242.349 270.094 241.162 268.99 241.013 268.855 240.878 268.723 240.768 268.618 239.818 267.672 238.022 268.693 236.808 268.154 235.529 267.589 234.723 266.27 233.869 265.237 233.116 264.33 232.564 263.27 231.74 262.429 230.978 261.653 229.949 261.167 229.222 260.357 228.595 259.665 228.512 258.841 227.973 258.123 227.373 257.321 227.189 257.181 226.462 256.962 226.379 256.94 226.278 256.91 226.169 256.874 225.787 256.752 225.323 256.239 224.916 255.784 224.653 255.49 224.403 255.214 224.145 255 221.289 252.626 220.338 248.78 218.626 245.643 218.363 245.17 216.874 243.335 215.967 243.173 215.765 243.059 215.305 242.542 215.082 242.288 214.714 241.876 214.526 241.67 214.32 241.561 214.145 241.399 213.663 240.746 213.304 240.212L212.226 240.935C212.318 241.07 212.401 241.193 212.484 241.311L211.538 243.817 211.004 244.185C212.397 246.204 214.166 248.679 214.67 248.981 215.244 249.336 217.644 251.863 217.71 252.595 217.833 253.957 218.967 255.328 219.725 255.788 220.067 256.038 221.206 257.856 222.064 259.393L222.104 259.468 222.161 259.529C222.204 259.573 223.194 260.593 223.978 261.071 224.246 261.229 224.574 261.382 224.92 261.544 225.275 261.71 225.858 261.982 226.033 262.14 226.164 262.665 226.707 264.176 227.767 264.816 228.061 264.996 228.402 265.175 228.731 265.355 229.318 265.666 229.984 266.025 230.225 266.279 230.531 266.594 231.399 268.176 231.767 268.85 231.907 269.104 232.016 269.301 232.086 269.42 232.721 270.51 234.863 271.308 236.015 271.57 237.159 271.829 238.451 271.522 239.48 272.166 240.514 272.814 240.786 273.708 241.013 274.764 241.329 276.218 243.033 276.257 243.177 277.786 243.352 279.692 245.372 279.937 246.432 281.321 247.492 282.71 248.512 284.146 250.19 284.799 250.558 284.944 250.935 285.092 251.005 285.268 251.263 285.942 252.087 286.704 253.449 287.528 253.778 287.725 254.185 287.817 254.619 287.913 255.609 288.128 256.082 288.294 256.152 288.873 256.331 290.331 256.857 290.879 257.413 291.457 257.549 291.597 257.689 291.742 257.829 291.908 258.057 292.175 258.298 292.837 258.526 293.476 258.92 294.567 259.371 295.802 260.177 296.398 261.154 297.125 262.157 299.096 262.582 299.937L262.6 299.972C262.849 300.467 263.173 300.77 263.454 301.041 263.76 301.33 264.001 301.558 264.172 302.018 264.303 302.373 264.431 302.929 264.558 303.463 264.89 304.9 265.105 305.732 265.644 306.057 265.762 306.127 265.915 306.201 266.113 306.298 266.8 306.63 268.079 307.248 268.281 308.111 268.741 310.082 269.354 311.282 270.217 311.878 270.865 312.329 271.312 313.411 271.185 313.919 270.927 314.944 271.478 316.022 272.819 317.117 273.874 317.98 274.361 318.619 274.352 319.132L274.348 319.417C274.334 320.236 274.312 321.252 274.483 322.093 274.584 322.588 275.368 325.961 275.74 326.6 275.802 326.719 275.911 327.214 275.995 327.573 276.214 328.545 276.485 329.75 276.993 330.455 278.259 332.203 276.914 334.222 277.974 336.049 278.632 337.179 278.557 338.607 279.074 339.811 279.21 340.135 279.341 340.442 279.407 340.7 279.735 342.015 281.023 343.263 281.168 343.399 281.33 343.552 281.457 343.662 281.553 343.736 281.579 343.758 281.606 343.78 281.632 343.802 281.623 344.56 281.86 345.335 282.368 346.237 282.508 346.478 282.701 346.631 282.841 346.745 282.876 346.772 282.929 346.811 282.955 346.837 282.959 346.885 282.959 346.964 282.964 347.021 282.964 347.17 282.968 347.341 283.012 347.512 283.086 347.814 283.231 348.029 283.34 348.182 283.393 348.261 283.437 348.327 283.459 348.379 283.459 348.379 283.577 348.686 283.577 348.686 284.006 349.785 284.457 350.867 285.206 351.791 285.96 352.72 285.798 353.237 286.082 354.358 286.293 355.177 286.428 355.913 286.801 356.697 287.142 357.416 287.462 358.23 287.611 359.015 287.712 359.553 287.541 360.101 287.655 360.64 287.738 361.034 287.997 361.437 288.102 361.857 288.443 363.215 288.754 364.293 289.376 364.74 289.503 364.832 289.578 364.889 289.617 364.924 289.617 364.967 289.613 365.024 289.609 365.073 289.6 365.27 289.582 365.559 289.604 365.975 289.674 367.49 290.603 368.537 291.282 369.304L291.304 369.33C291.51 369.562 291.694 370.46 291.825 371.117 292.022 372.094 292.206 373.018 292.644 373.509 293.24 374.179 293.857 375.436 294.072 376.085 294.383 377.004 294.913 377.613 295.964 378.248 296.126 378.345 296.289 378.419 296.446 378.489 296.652 378.581 296.845 378.669 296.941 378.77 297.02 378.857 297.09 379.041 297.16 379.221 297.835 380.973 299.526 382.892 301.081 383.952 301.523 384.254 302.014 384.42 302.469 384.692 304.694 386.019 307.068 387.526 309.578 388.218 310.884 388.577 312.163 389.173 313.271 389.953 314.2 390.605 314.94 391.762 316.061 392.086 317.59 392.537 318.151 393.058 318.348 393.426 319.224 395.003 323.149 394.973 324.725 395.38 325.856 395.669 326.701 396.497 327.726 396.996 328.909 397.574 330.284 397.369 331.427 398.091 332.115 398.525 332.54 398.985 333.381 399.116 334.13 399.235 334.774 399.064 335.47 399.467 336.272 399.927 336.701 400.803 337.376 401.407 338.02 401.981 338.87 402.314 339.378 403.041 340.232 404.25 340.718 405.7 340.749 407.18 340.779 408.639 341.02 409.533 341.2 410.181 341.467 411.175 341.568 411.543 340.617 413.098 339.027 415.687 339.842 418.924 341.13 421.092 341.441 421.614 341.857 421.798 342.128 421.916 342.347 422.017 342.404 422.043 342.466 422.174 342.562 422.371 342.667 422.836 342.628 423.909 342.505 427.304 342.873 428.679 343.951 428.824 344.086 428.841 344.761 429.196 344.717 430.44 344.7 431.005 344.691 431.456 344.687 431.855 344.678 432.569 344.669 433.186 344.581 434.22 344.415 436.134 343.145 437.781 342.899 439.687 342.755 440.843 343.202 442.004 343.583 443.077 343.894 443.962 344.305 444.742 345.002 445.381 345.484 445.819 345.913 445.797 346.15 445.784 346.158 445.784 346.167 445.784 346.176 445.784 346.237 445.859 346.382 446.078 346.609 446.691 347.359 448.719 347.315 449.963 347.249 451.684 347.192 453.323 348.659 454.247 349.632 454.86 349.899 455.031 350.179 455.206 350.285 455.316 350.604 455.684 351.27 457.799 351.187 458.347 351.178 458.382 351.152 458.439 351.134 458.491 350.258 460.782 351.629 461.321 352.913 462.924 353.254 463.354 353.53 463.84 353.649 464.387 353.898 465.539 353.982 467.567 354.122 468.737 354.179 469.192 354.135 469.753 354.306 470.187 354.306 470.187 354.472 468.978 354.485 468.614 354.516 467.734 354.49 466.849 354.459 465.969 354.424 464.979 354.24 464.085 353.977 463.13" fill="#FFFFFF" transform="matrix(1 0 0 1.00235 670.28 1054)"/><path d="M236.309 463.275C236.97 462.609 238.407 461.452 239.174 460.511 239.949 459.573 239.616 458.912 240.497 457.699 241.377 456.485 241.263 452.455 241.316 450.913 241.368 449.367 240.983 448.929 241.04 447.825 241.092 446.721 241.421 445.784 241.478 444.79 241.53 443.795 242.634 443.3 243.296 442.749 243.957 442.197 244.285 441.421 244.89 440.869 245.499 440.317 248.863 439.376 249.467 438.105 250.072 436.84 251.614 433.97 251.776 432.753 251.942 431.539 251.776 431.154 251.776 430.107 251.776 429.06 251.609 428.894 251.167 427.899 250.725 426.909 250.006 427.295 250.006 425.144 250.002 422.993 248.237 423.878 248.679 422.222 249.117 420.567 250.549 420.567 251.32 419.901 252.096 419.239 254.851 419.073 255.898 417.855 256.945 416.642 258.802 416.857 260.291 415.678 261.785 414.5 262.722 410.413 263.191 409.471 263.664 408.53 264.448 407.036 265.385 405.936 266.327 404.833 266.327 403.97 267.19 403.26 268.053 402.555 268.29 401.534 268.995 400.75 269.7 399.962 269.7 399.725 270.721 398.31 271.737 396.895 272.131 397.526 272.841 396.659 273.546 395.796 273.936 395.008 274.72 394.066 275.504 393.124 276.135 392.809 276.761 392.099 277.387 391.394 278.014 390.369 278.645 389.269 279.271 388.17 282.815 386.076 283.235 385.656 283.651 385.235 285.123 384.447 285.544 384.079 285.964 383.711 286.49 382.708 286.805 382.287 287.121 381.867 287.484 381.183 287.852 380.815 288.22 380.447 288.483 380.605 288.851 379.974 289.219 379.344 289.924 378.818 290.13 378.717 290.336 378.612 290.804 378.043 290.909 377.78 291.01 377.521 291.501 377.21 291.527 377.079 291.553 376.952 292.048 376.615 292.127 376.33 292.202 376.041 293.538 374.166 293.538 374.166L294.558 375.909C294.558 375.909 293.993 376.505 293.814 376.772 293.634 377.044 293.415 377.372 293.249 377.521 293.082 377.67 293.03 377.946 292.824 378.187 292.622 378.428 292.605 378.59 292.403 378.796 292.197 378.998 291.058 380.071 290.853 380.347 290.651 380.623 290.393 380.697 290.191 380.938 289.99 381.179 289.806 381.398 289.582 381.713 289.363 382.029 288.68 382.708 288.553 383.137 288.421 383.557 288.255 383.671 288.036 383.89 287.813 384.114 287.611 384.556 287.427 384.705 287.243 384.85 286.174 385.774 285.973 385.94 285.771 386.107 285.031 386.497 284.628 386.738 284.221 386.974 284.129 387.013 283.818 387.289 283.502 387.565 282.495 388.109 282.079 388.577 281.658 389.046 280.8 389.392 280.454 389.909 280.112 390.426 279.547 391.727 279.232 392.121 278.912 392.515 278.172 393.251 277.804 393.645 277.436 394.039 276.919 394.386 276.673 394.85 276.433 395.319 275.868 395.984 275.57 396.23 275.276 396.475 274.444 397.925 273.853 398.372 273.261 398.814 272.403 398.862 271.938 399.528 271.47 400.189 270.957 400.584 270.462 401.223 269.972 401.863 268.745 403.711 268.425 404.079 268.11 404.447 267.887 404.719 267.668 405.135 267.444 405.555 267.396 405.455 267.028 406.02 266.66 406.589 264.794 408.998 264.549 409.734 264.303 410.474 264.33 410.326 264.159 411.088 263.984 411.85 263.572 413.817 263.204 414.285 262.836 414.754 262.197 416.103 261.68 416.449 261.163 416.795 259.787 417.483 259.398 417.829 259.003 418.171 257.676 418.175 256.866 418.963 256.055 419.748 254.189 420.12 253.795 420.466 253.401 420.808 252.836 420.562 252.372 421.031 251.903 421.5 251.557 421.18 251.141 421.6 250.725 422.017 250.286 422.117 250.567 422.433 250.847 422.744 251.009 422.529 251.259 423.138 251.504 423.747 251.601 423.646 251.605 424.417 251.605 425.192 251.605 425.192 251.653 425.534 251.706 425.88 251.92 426.931 252.38 427.26 252.84 427.588 252.792 427.965 252.792 428.587 252.792 429.213 252.941 429.59 252.941 430.019 252.941 430.444 252.989 431.071 252.893 431.68 252.796 432.288 252.84 432.648 252.599 433.27 252.354 433.892 252.31 433.892 252.201 434.273 252.087 434.649 251.732 435.381 251.447 436.09 251.158 436.804 250.694 437.913 250.072 438.911 249.45 439.914 248.004 440.177 247.807 440.313 247.615 440.444 246.8 440.633 246.533 440.839 246.265 441.045 245.372 441.281 245.105 441.61 244.837 441.943 244.448 442.271 244.097 442.744 243.751 443.217 243.532 443.134 243.217 443.384 242.897 443.629 242.485 443.813 242.157 444.299 241.828 444.781 241.868 444.926 241.85 445.329 241.828 445.727 241.684 445.994 241.644 446.275 241.605 446.551 241.513 446.787 241.469 447.129 241.43 447.466 241.329 447.733 241.43 448.496 241.535 449.258 241.587 449.297 241.609 450.007 241.627 450.716 241.631 450.997 241.587 451.54 241.548 452.083 241.592 452.631 241.57 453.082 241.548 453.533 241.447 454.904 241.368 455.592 241.285 456.279 241.263 456.157 241.246 456.468 241.224 456.774 240.873 457.589 240.667 457.948 240.466 458.307 240.321 458.491 240.229 458.899 240.137 459.302 240.098 459.337 240.037 459.6 239.971 459.858 239.857 460.195 239.59 460.585 239.323 460.979 238.578 461.562 238.578 461.562 238.578 461.562 238.127 461.961 238.017 462.074 237.908 462.193 237.619 462.329 237.54 462.416 237.461 462.504 237.163 462.78 237.04 462.854 236.913 462.924 236.782 463.021 236.708 463.099 236.629 463.178 236.414 463.292 236.414 463.292L236.309 463.275" fill="#FFFFFF" transform="matrix(1 0 0 1.00235 670.28 1054)"/><path d="M297.073 144.16C297.073 144.16 297.743 141.909 297.655 140.236 297.572 138.562 297.752 137.472 297.66 136.635 297.568 135.798 298.155 133.954 298.15 132.614 298.15 131.273 298.904 129.517 299.32 128.343 299.736 127.169 300.156 126.749 300.489 125.496 300.822 124.239 302.495 120.888 303.161 120.301 303.831 119.714 304.081 117.953 304.835 117.2 305.588 116.446 307.458 113.432 309.088 111.799 310.722 110.165 309.337 109.411 311.094 107.274 312.85 105.136 312.85 103.126 313.854 100.988 314.857 98.8504 312.969 98.2241 313.845 94.9564 314.721 91.6886 317.48 88.4165 318.361 87.1594 319.237 85.9023 320.998 85.1488 322.378 84.1414 323.757 83.1339 325.518 82.2534 326.648 81.246 327.779 80.2385 329.912 79.1084 331.169 78.3506 332.422 77.5972 332.671 74.5791 334.682 73.9484 336.692 73.3176 336.565 72.0605 338.699 71.053 340.832 70.0455 343.057 69.1038 345.479 68.0306 347.906 66.9574 348.997 66.5194 349.877 66.3923L349.505 68.7884C349.505 68.7884 347.534 69.1125 346.938 69.4104 346.342 69.7082 346.373 69.5768 345.86 69.9798 345.348 70.3872 344.454 70.304 344.051 70.8208 343.644 71.3333 341.909 71.6093 340.946 72.1612 339.986 72.7088 339.211 72.573 338.707 73.4884 338.204 74.4039 336.465 74.2243 335.186 76.0991 333.907 77.9783 333.955 78.39 332.308 79.6253 330.665 80.8605 329.658 81.1847 329.43 81.4606 329.202 81.7322 328.238 82.0563 327.783 82.5601 327.327 83.0638 325.177 84.2071 324.581 84.6188 323.99 85.0306 323.074 85.2189 322.527 85.9504 321.979 86.6819 319.92 87.3697 319.281 88.8809 318.641 90.3921 316.127 92.223 315.671 95.1053 315.22 97.9875 314.988 97.164 315.312 98.7672 315.632 100.366 315.198 100.173 314.9 100.944 314.607 101.72 314.458 102.193 314.283 103.112 314.103 104.032 313.748 104.356 313.543 105.009 313.337 105.666 313.126 106.078 312.921 106.643 312.715 107.208 312.386 107.028 312.18 107.624 311.974 108.216 311.528 107.922 311.322 108.93 311.116 109.937 311.085 110.471 310.7 111.479 310.314 112.491 309.723 112.64 309.158 113.292 308.597 113.945 307.888 114.659 307.502 115.518 307.117 116.38 306.315 116.976 306.109 117.568 305.903 118.159 305.724 117.659 305.487 118.338 305.251 119.022 304.598 120.178 303.919 121.19 303.236 122.197 302.614 123.503 302.377 124.099 302.141 124.69 301.492 125.995 300.783 127.988 300.073 129.973 299.893 129.916 299.745 130.687 299.6 131.457 299.215 132.557 299.184 133.359 299.158 134.16 298.829 135.019 299.009 135.79 299.188 136.561 298.982 137.183 299.013 138.637 299.044 140.091 299.074 140.152 299.074 141.191 299.074 142.229 298.855 142.724 298.838 143.324 298.825 143.924 298.514 144.69 298.514 144.69" fill="#FFFFFF" transform="matrix(1 0 0 1.00235 670.28 1054)"/><path d="M0 244.579C4.45915 243.186 8.00721 243.033 10.0616 241.596 12.1247 240.155 18.901 236.668 24.5867 234.894 30.303 233.111 37.0092 230.509 41.2494 229.695 45.507 228.88 49.8173 229.011 53.1901 227.237 56.6199 225.428 59.397 225.152 63.7291 225.183 68.0832 225.209 73.0022 222.441 73.0022 222.441 76.9226 221.298 80.1421 219.375 83.7252 216.278 87.3215 213.177 91.2988 212.397 94.5577 210.837 97.8298 209.269 103.31 206.913 106.24 206.12 109.179 205.327 113.927 203.111 118.4 201.704 122.885 200.29 124.699 199.379 127.143 198.564 129.591 197.753 131.974 196.041 133.486 195.029 135.001 194.017 141.541 195.042 144.025 195.025 146.508 195.003 149.447 194.709 151.37 193.684 153.298 192.659 156.579 192.834 158.322 191.604 160.065 190.377 163.175 190.749 165.313 189.308 167.459 187.867 170.004 189.26 172.356 187.81 174.713 186.36 176.483 187.56 178.257 186.316 180.031 185.072 182.011 184.639 183.592 183.802 185.178 182.961 187.959 182.107 189.155 181.476 190.351 180.845 193.548 180.386 194.946 179.339 196.347 178.292 199.164 179.483 201.376 179.247 203.592 179.006 205.813 178.147 208.095 177.078 210.382 176.005 211.897 175.777 213.527 175.335 215.156 174.893 218.836 174.831 220.47 173.351 222.108 171.866 228.906 173.412 229.379 173.193 229.852 172.978 234.29 173.105 238.03 171.84 241.78 170.569 251.719 171.594 251.719 171.594L249.454 175.098C249.454 175.098 246.673 174.928 246.151 174.936 245.63 174.945 242.406 174.879 240.124 175.396 237.842 175.918 236.528 176.119 234.434 176.154 232.345 176.189 229.664 176.351 228.179 176.373 226.694 176.399 225.152 175.523 223.26 176.036 221.368 176.544 219.892 176.509 218.363 177.008 216.83 177.512 212.081 178.121 210.325 178.984 208.573 179.842 207.522 180.215 206.825 180.403 206.124 180.591 202.405 181.297 201.415 181.31 200.43 181.323 198.406 180.88 197.193 181.135 195.979 181.389 192.523 182.558 191.547 182.865 190.57 183.176 185.874 184.354 184.043 185.791 182.221 187.223 179.093 188.318 176.991 188.752 174.897 189.186 173.084 189.672 171.73 190.386 170.377 191.104 168.629 190.535 167.503 190.894 166.382 191.257 161.756 192.326 160.898 192.799 160.043 193.272 159.395 193.526 158.642 193.71 157.893 193.894 154.958 193.706 153.118 194.753 151.287 195.8 149.215 196.277 147.998 196.426 146.78 196.58 144.822 196.807 143.876 196.742 142.934 196.676 140.003 196.413 139.298 196.422 138.593 196.426 137.52 196.295 136.819 196.299 136.114 196.304 135.176 195.782 134.073 196.562 132.973 197.346 130.205 199.379 125.29 200.999 120.393 202.607 113.183 204.841 110.489 206.286 107.804 207.727 105.482 208.113 103.388 208.879 101.299 209.642 96.3361 211.407 93.8657 212.642 91.3995 213.873 89.9015 213.965 87.5755 215.428 85.2583 216.891 84.6451 217.316 81.8505 219.524 79.0646 221.727 76.8043 222.375 74.7675 223.4 72.735 224.421 68.6219 226.129 64.6315 226.313 60.6585 226.497 59.8964 226.418 57.785 226.839 55.6781 227.255 54.8327 227.855 53.5712 228.477 52.314 229.103 50.321 229.458 48.2798 229.76 46.2429 230.058 43.3782 230.26 41.3501 230.759 39.3264 231.254 36.0938 231.854 33.9518 232.629 31.8142 233.409 29.0152 234.29 26.8863 235.122 24.7663 235.945 23.0799 236.125 20.8415 237.176 18.6032 238.228 17.0525 238.758 15.169 239.634 13.2855 240.51 12.681 240.829 11.4063 241.635 10.136 242.437 8.09919 243.155 7.05668 243.339 6.01855 243.523 4.42849 243.738 3.50425 244.014 2.58 244.29 0 244.579 0 244.579" fill="#FFFFFF" transform="matrix(1 0 0 1.00235 670.28 1054)"/><path d="M38.2007 363.561C38.2007 363.561 44.8544 351.402 49.9399 348.502 54.894 345.677 57.7106 345.129 60.7461 342.79 63.7817 340.451 64.0138 337.179 67.2772 332.969 70.5449 328.76 69.7214 321.353 69.7214 321.353 70.0105 318.164 69.8134 316.25 70.2996 311.462 70.7814 306.674 72.2444 306.836 73.2169 303.801 74.1893 300.77 74.0886 299.175 74.7675 295.504 75.4464 291.834 75.7399 291.676 75.8363 288.645 75.9283 285.614 75.7312 284.654 76.6116 282.898 77.4877 281.146 78.1447 278.237 78.9332 275.359 79.7216 272.482 80.3393 273.055 81.7453 271.185 83.1514 269.315 84.1195 270.033 85.3503 269.744 86.5812 269.455 86.2308 268.592 86.314 265.569 86.3972 262.551 87.1025 263.125 87.8953 261.684 88.6837 260.247 89.4766 259.38 90.8827 258.517 92.2887 257.654 92.5516 257.794 94.2248 256.358 95.8937 254.916 94.3081 253.046 95.6265 252.472 96.945 251.894 97.6502 251.031 99.4111 250.742 101.168 250.453 101.08 250.738 103.279 249.73 105.478 248.723 106.266 246.563 107.322 245.411 108.378 244.259 110.314 244.115 112.337 244.11 114.361 244.11 113.919 241.806 115.325 241.228 116.731 240.654 116.293 240.654 116.639 237.632 116.989 234.614 117.603 233.746 118.308 232.454 119.009 231.158 118.746 229.865 119.622 227.417 120.498 224.973 120.143 221.087 120.756 218.499 121.37 215.91 121.365 213.75 121.365 210.732 121.361 207.71 121.33 202.011 121.33 202.011L123.231 201.31C123.231 201.31 123.231 202.383 123.231 202.703 123.231 203.023 123.109 203.68 123.109 203.973 123.109 204.263 123.082 204.626 123.082 204.836 123.082 205.047 123.025 205.813 123.025 206.159 123.03 206.51 122.837 208.928 122.841 209.9 122.841 210.877 122.671 211.556 122.771 212.8 122.868 214.039 122.701 215.669 122.579 216.497 122.456 217.325 122.167 218.617 122.07 219.953 121.974 221.293 121.685 222.314 121.663 223.895 121.641 225.481 121.374 226.624 121.107 227.575 120.84 228.521 120.498 228.889 120.235 230.4 119.968 231.907 119.604 232.345 119.359 233.269 119.359 233.269 118.96 234.298 118.693 234.969 118.426 235.639 118.29 235.959 118.211 236.791 118.133 237.623 118.027 237.781 118.001 238.263 117.97 238.744 117.813 239.844 117.734 240.435 117.655 241.022 117.252 241.373 117.064 241.482 116.875 241.587 116.179 241.78 115.969 242.148 115.754 242.511 115.189 243.282 114.948 243.839 114.712 244.395 114.076 244.886 113.625 245.03 113.174 245.179 112.167 245.218 111.799 245.218 111.426 245.218 109.863 245.1 109.241 245.538 108.619 245.976 108.251 246.335 107.607 247.492 106.958 248.648 105.692 249.831 104.878 250.479 104.063 251.128 102.206 251.579 100.769 251.806 99.3367 252.034 98.8023 251.894 97.9306 252.542 97.0589 253.186 96.7479 252.963 96.4369 253.554 96.1303 254.146 96.4938 254.54 96.3274 255.131 96.1609 255.722 95.7404 256.537 95.0746 257.142 94.4132 257.746 92.683 258.526 91.5134 259.288 90.3395 260.05 90.103 260.317 89.5642 261.097 89.0254 261.872 88.4735 262.508 88.0924 262.919 87.7113 263.335 87.615 263.208 87.4266 263.918 87.2382 264.632 87.2076 265.109 87.2076 265.696 87.2076 266.283 87.2382 266.489 87.2251 266.949 87.2076 267.409 87.1769 268.421 87.1244 268.732 87.0718 269.039 87.1068 269.998 86.1519 270.44 85.2014 270.883 84.4217 270.589 84.01 270.747 83.5982 270.905 83.0156 270.786 82.4068 271.772 81.8023 272.757 81.1409 272.885 80.786 273.415 80.4356 273.949 79.9801 275.101 79.7304 275.977 79.4807 276.857 79.0427 278.027 78.6966 279.28 78.355 280.533 78.355 281.352 78.0133 282.228 77.6673 283.108 77.2906 283.297 77.1022 284.208 76.9139 285.119 76.8219 286.249 76.8219 287.221 76.8262 288.198 76.8569 289.328 76.5766 290.866 76.2962 292.403 76.1079 293.757 75.6392 295.61 75.1705 297.462 75.1092 298.531 74.9515 300.003 74.7982 301.479 74.4521 302.421 74.1411 303.398 73.8301 304.37 73.6812 305.001 73.0548 306.381 72.4284 307.761 71.9904 307.572 71.6794 309.079 71.3684 310.586 71.3684 310.963 71.3071 312.215 71.2457 313.472 70.9961 314.537 70.9961 315.667 70.9961 316.797 71.0004 317.923 70.9391 319.303 70.8778 320.682 70.8778 323.569 70.5668 326.517 70.2602 329.465 69.2483 331.966 68.2671 333.53 67.2859 335.089 67.1808 334.743 66.388 336.272 65.5908 337.801 64.9994 338.843 64.3424 340.337 63.6853 341.831 61.2192 343.881 59.7299 344.752 58.2362 345.624 54.1056 347.048 51.1576 348.686 48.2053 350.32 45.8794 353.259 45.8794 353.259 45.8794 353.259 42.7912 356.973 38.2007 363.561" fill="#FFFFFF" transform="matrix(1 0 0 1.00235 670.28 1054)"/><path d="M70.3741 428.258C70.3741 428.258 76.3795 420.387 76.8394 415.297 77.2949 410.203 79.8399 409.046 81.4562 405.109 83.0682 401.175 85.6132 397.553 85.6132 397.553 85.8015 396.799 92.3895 389.817 89.7482 387.18 87.1068 384.547 87.7814 378.941 87.777 376.4 87.777 373.864 86.971 371.599 86.971 370.263 86.9667 368.927 84.9605 365.589 84.2903 363.513 83.6245 361.432 77.6103 357.99 77.6103 355.988 77.6059 353.982 74.2638 351.183 73.598 349.715 72.9278 348.248 72.1262 347.981 72.6518 342.505 73.1818 337.03 68.2627 331.379 68.2627 331.379L68.8278 330.818C68.8278 330.818 69.4848 331.489 69.6951 331.826 69.901 332.168 70.558 332.925 71.0399 333.806 71.5217 334.691 71.5962 334.892 71.9772 335.602 72.3583 336.307 72.8358 337.823 73.1161 338.935 73.3965 340.043 73.4972 341.13 73.5235 342.067 73.5498 343 73.3001 343.81 73.4008 344.822 73.5016 345.83 73.1512 346.465 73.8608 348.002 74.566 349.544 74.7193 350.175 76.7167 352.523 76.7167 352.523 78.1228 354.174 78.5127 355.896 78.5127 355.896 78.3681 356.386 79.3143 357.363 80.2604 358.34 81.3423 359.29 81.8329 359.623 82.3192 359.956 83.2478 360.78 83.7866 361.393 84.3297 362.011 84.5093 362.322 84.9473 363.347 85.3854 364.376 86.187 366.15 86.5724 366.847 86.9579 367.539 87.4485 368.8 87.5755 369.571 87.7069 370.342 87.7858 371.192 87.9654 371.858 88.145 372.528 88.3289 374.043 88.4078 374.893 88.4823 375.739 88.4078 377.232 88.4122 378.029 88.4122 378.827 88.18 380.242 88.4122 381.709 88.6487 383.172 88.4428 383.61 89.24 385.305 90.0416 387.005 90.2694 386.361 90.7075 387.412 91.1455 388.468 91.2769 389.471 90.4578 391.324 89.6343 393.177 88.5042 394.618 87.4529 396.186 86.3972 397.758 85.6526 398.196 84.0888 401.179 82.525 404.167 81.8286 405.814 81.8286 405.814 81.8286 405.814 80.7028 407.873 79.7129 409.209 78.7229 410.549 77.8512 411.894 77.5534 414.241 77.2555 416.589 76.8219 418.39 75.6523 420.821 74.4784 423.247 70.3741 428.258 70.3741 428.258" fill="#FFFFFF" transform="matrix(1 0 0 1.00235 670.28 1054)"/></g></svg>