<svg width="637" height="647" xmlns="http://www.w3.org/2000/svg" xmlns:xlink="http://www.w3.org/1999/xlink" xml:space="preserve" overflow="hidden"><defs><clipPath id="clip0"><rect x="810" y="1984" width="637" height="647"/></clipPath><clipPath id="clip1"><path d="M1074.87 1984.38 1446.02 2386.17 1181.85 2630.2 810.701 2228.41Z" fill-rule="evenodd" clip-rule="evenodd"/></clipPath><clipPath id="clip2"><path d="M1074.87 1984.38 1446.02 2386.17 1181.85 2630.2 810.701 2228.41Z" fill-rule="evenodd" clip-rule="evenodd"/></clipPath><clipPath id="clip3"><path d="M1074.87 1984.38 1446.02 2386.17 1181.85 2630.2 810.701 2228.41Z" fill-rule="evenodd" clip-rule="evenodd"/></clipPath></defs><g clip-path="url(#clip0)" transform="translate(-810 -1984)"><g clip-path="url(#clip1)"><g clip-path="url(#clip2)"><g clip-path="url(#clip3)"><path d="M229.329 497.87C122.82 535.074 44.5661 634.368 39.8329 753.934 38.6449 783.956 42.1962 813.074 49.7895 840.561L50.685 840.256C43.1922 813.169 39.7751 784.443 41.1009 754.806 41.3895 748.354 41.9136 741.967 42.6349 735.639 64.4698 739.152 86.6865 741.401 109.214 742.373 111.272 767.446 115.959 792.066 122.874 815.73L123.521 815.51C116.628 791.949 112.048 767.424 110.145 742.417 128.622 743.185 147.312 743.087 166.157 742.06 178.761 741.372 191.232 740.277 203.591 738.802 207.219 754.043 211.389 769.174 216.058 784.068L216.431 783.941C211.768 769.077 207.605 753.961 204.015 738.742 242.874 734.076 280.466 725.587 316.418 713.672L335.357 767.449 317.313 713.368C352.396 701.678 385.926 686.739 417.551 668.904 423.473 682.189 429.044 695.908 434.19 709.949L434.563 709.822C429.408 695.76 423.83 682.016 417.924 668.694 443.385 654.311 467.619 638.063 490.439 620.136 502.218 638.946 512.415 659.226 520.707 680.552L521.403 680.315C513.07 658.896 502.891 638.506 491.158 619.559 506.604 607.385 521.411 594.442 535.507 580.793 555.827 603.853 572.304 630.261 583.99 659.049L584.91 658.737C544.376 558.969 448.404 486.878 333.798 482.347 304.962 481.206 276.973 484.426 250.445 491.412 248.173 491.953 245.926 492.541 243.692 493.18 241.964 493.594 240.265 494.111 238.608 494.713 238.476 494.76 238.35 494.824 238.219 494.873 237.037 495.258 235.848 495.636 234.678 496.048 234.447 496.13 234.221 496.227 233.99 496.31 232.435 496.822 230.872 497.326 229.33 497.865ZM238.745 499.61C239.422 499.395 240.097 499.184 240.776 498.975L252.205 531.385C235.348 536.814 218.36 541.011 201.341 544.034 209.809 521.406 222.537 506.054 238.744 499.61ZM245.28 497.611C245.692 497.491 246.111 497.389 246.524 497.272 258.242 494.803 271.498 496.538 286.088 503.057 291.261 505.369 296.456 508.235 301.666 511.583 287.684 518.332 273.165 524.319 258.118 529.432 257.453 529.658 256.786 529.861 256.12 530.084L245.281 497.612ZM219.349 507.448C210.638 516.349 203.576 528.861 198.403 544.533 187.596 546.366 176.766 547.72 165.966 548.617 181.326 531.163 199.321 517.217 219.349 507.449ZM266.621 492.967C282.12 490.769 298.354 490.769 315.142 493.184 320.316 493.929 325.451 494.906 330.554 496.078 322.066 501.113 313.338 505.86 304.383 510.27 297.862 505.712 291.334 501.924 284.868 498.976 278.529 496.085 272.442 494.095 266.622 492.967ZM191.42 519.407C180.262 527.833 169.98 537.755 160.751 549.029 155.628 549.385 150.521 549.624 145.411 549.774 159.678 538.244 175.086 528.055 191.42 519.407ZM299.224 487.494C310.918 486.448 322.793 486.084 334.819 486.498 338.244 486.617 341.66 486.809 345.05 487.046 341.727 489.223 338.361 491.363 334.959 493.443 328.052 491.598 321.06 490.127 314.022 489.07 309.039 488.322 304.104 487.819 299.225 487.494ZM140.943 553.455C146.539 553.365 152.148 553.155 157.763 552.818 147.249 566.333 138.167 581.652 130.752 598.511 120.353 598.122 110.015 597.356 99.7576 596.224 111.955 580.578 125.768 566.235 140.942 553.456ZM350.919 487.518C374.368 489.642 396.901 494.581 418.216 502 410.638 508.217 402.831 514.209 394.808 519.914 377.251 508.914 358.777 500.377 339.704 494.77 343.49 492.41 347.234 489.997 350.919 487.518ZM162.625 552.524C162.63 552.517 162.645 552.521 162.65 552.515 174.145 551.677 185.665 550.308 197.188 548.41 193.002 562.318 190.214 578.52 188.96 596.712 170.4 598.548 151.938 599.161 133.664 598.602 141.636 581.492 151.365 566.036 162.625 552.524ZM335.593 497.303C355.346 502.393 374.481 510.594 392.636 521.456 377.877 531.813 362.38 541.251 346.224 549.74 333.582 534.781 320.64 522.236 307.684 512.668 317.257 507.901 326.567 502.772 335.593 497.303ZM199.961 547.937C217.811 544.863 235.652 540.497 253.373 534.783L269.624 580.899C256.505 584.799 243.085 588.123 229.37 590.802 216.367 593.343 203.37 595.245 190.43 596.57 191.999 578.092 195.246 561.772 199.96 547.937ZM305.151 513.887C318.521 523.044 331.897 535.433 344.951 550.42 322.149 562.303 298.031 572.223 272.742 579.95L257.236 533.498C257.893 533.278 258.552 533.078 259.209 532.855 275.124 527.447 290.441 521.082 305.152 513.887ZM98.3612 598.026C108.827 599.128 119.386 599.839 130.003 600.177 121.405 620.141 115.149 642.226 111.549 665.993 94.8806 665.096 78.348 663.346 62.0029 660.797 71.3903 638.224 83.679 617.174 98.3612 598.026ZM419.908 502.588C440.391 509.865 459.705 519.439 477.582 530.967 466.987 541.085 455.905 550.745 444.384 559.922 429.356 544.758 413.13 531.54 396.003 520.673 404.188 514.9 412.176 508.881 419.908 502.589ZM132.889 600.254C151.379 600.72 170.069 600.025 188.866 598.076 187.595 617.832 188.122 639.893 190.609 663.883 164.611 666.681 138.737 667.377 113.165 666.085 117.091 642.252 123.805 620.159 132.889 600.253ZM393.855 522.182C411.333 532.777 427.866 545.832 443.163 560.895 424.298 575.825 404.247 589.457 383.073 601.595 371.556 582.647 359.417 565.463 346.97 550.626 363.291 542.095 378.928 532.574 393.854 522.182ZM190.335 597.91C202.889 596.566 215.491 594.698 228.112 592.232 242.389 589.443 256.34 585.969 269.992 581.887L291.27 642.305C280.13 645.933 268.789 649.194 257.238 652.065 235.292 657.52 213.285 661.395 191.381 663.787 189.057 639.699 188.757 617.603 190.335 597.91ZM345.715 551.273C358.376 565.918 370.722 583.015 382.415 601.956 354.558 617.87 324.795 631.23 293.342 641.628L273.084 580.947C298.488 573.146 322.762 563.177 345.716 551.273ZM61.0168 663.273C77.5704 665.736 94.3275 667.405 111.218 668.191 108.378 687.942 107.371 708.834 108.431 730.626 108.593 733.96 108.815 737.274 109.07 740.592 86.6806 739.496 64.5817 737.078 42.8711 733.424 45.8656 708.905 52.0719 685.379 61.0171 663.272ZM479.145 531.962C499.298 545.148 517.562 560.861 533.535 578.604 519.65 592.277 505.048 605.227 489.818 617.433 476.77 596.686 461.867 577.688 445.507 561.011 457.175 551.807 468.402 542.105 479.145 531.962ZM112.821 668.25C138.548 669.364 164.599 668.485 190.777 665.513 191.997 676.909 193.649 688.73 195.768 700.943 197.881 713.119 200.394 725.302 203.249 737.414 191.632 738.771 179.897 739.764 168.057 740.41 148.526 741.475 129.171 741.526 110.026 740.621 109.813 737.612 109.61 734.59 109.475 731.568 108.488 709.442 109.683 688.245 112.822 668.249ZM444.289 562C460.859 578.488 475.943 597.335 489.096 618.004 466.466 636.079 442.429 652.462 417.131 666.957 406.882 644.014 395.641 622.384 383.709 602.645 405.023 590.493 425.259 576.915 444.289 562ZM191.52 665.425C212.919 662.963 234.387 659.113 255.849 653.778 268.008 650.755 279.938 647.284 291.656 643.443L315.925 712.335C280.058 724.305 242.514 732.785 203.673 737.353 200.93 725.608 198.535 713.804 196.514 701.993 194.354 689.364 192.699 677.165 191.525 665.425ZM383.051 603.009C395.103 622.642 406.449 644.233 416.756 667.169 385.266 685.181 351.859 700.269 316.845 712.022L293.73 642.766C325.226 632.288 355.079 618.904 383.056 603.009Z" fill="#FFFFFF" transform="matrix(0.678546 0.734558 -0.735203 0.679142 1402.63 1629.43)"/></g></g></g></g></svg>