<svg xmlns="http://www.w3.org/2000/svg" xmlns:xlink="http://www.w3.org/1999/xlink" width="18.117" height="11.072" viewBox="0 0 18.117 11.072">
  <defs>
    <clipPath id="clip-path">
      <rect id="Rectangle_280" data-name="Rectangle 280" width="18.117" height="11.072" fill="#aaa"/>
    </clipPath>
  </defs>
  <g id="Group_586" data-name="Group 586" clip-path="url(#clip-path)">
    <path id="Path_59" data-name="Path 59" d="M2.013,11.072A2.014,2.014,0,0,0,4.026,9.059a1.992,1.992,0,0,0-.407-1.2l1.6-2a1.972,1.972,0,0,0,1.839-.105L9.343,8.042a1.987,1.987,0,0,0-.285,1.017,2.013,2.013,0,0,0,4.026,0,1.992,1.992,0,0,0-.477-1.285l2.776-3.885a2.01,2.01,0,1,0-1.293-1.875A1.994,1.994,0,0,0,14.567,3.3L11.792,7.184a2.018,2.018,0,0,0-.721-.138,1.987,1.987,0,0,0-1.017.285L7.767,5.043a1.988,1.988,0,0,0,.285-1.017,2.013,2.013,0,1,0-3.62,1.2l-1.6,2a2.012,2.012,0,1,0-.822,3.848Z" fill="#aaa"/>
  </g>
</svg>
