<svg xmlns="http://www.w3.org/2000/svg" width="16.015" height="17.008" viewBox="0 0 16.015 17.008">
  <g id="Icons-UI" transform="translate(-44.993 -1541.996)">
    <path id="Shape_1" data-name="Shape 1" d="M44.993,1550.871a8.16,8.16,0,0,1,1.522-4.769.368.368,0,0,1,.5-.1l2.092,1.309a.381.381,0,0,1,.105.543,4.682,4.682,0,1,0,7.584,0,.382.382,0,0,1-.063-.3.375.375,0,0,1,.169-.248L58.99,1546a.367.367,0,0,1,.495.1,8.056,8.056,0,1,1-14.492,4.769Zm6.693.755v-5.358l-1.308.886a.37.37,0,0,1-.382.019.379.379,0,0,1-.2-.333v-2.553a.379.379,0,0,1,.166-.313l2.828-1.914a.366.366,0,0,1,.412,0l2.828,1.914a.381.381,0,0,1,.165.313v2.553a.378.378,0,0,1-.2.333.37.37,0,0,1-.382-.019l-1.308-.886v5.358a1.314,1.314,0,1,1-2.628,0Z" fill="#aaa"/>
  </g>
</svg>
